<svg width="16" height="16" fill="currentColor" xmlns="http://www.w3.org/2000/svg"><path stroke="#000" d="M3 13.5h3"/><path d="M2.5 2H6v1H2.5a.5.5 0 0 0-.5.5v6a.5.5 0 0 0 .5.5H6v1H2.5A1.5 1.5 0 0 1 1 9.5v-6A1.5 1.5 0 0 1 2.5 2z"/><path fill-rule="evenodd" clip-rule="evenodd" d="M9 10a2 2 0 1 1 4 0 2 2 0 0 1-4 0zm2-1a1 1 0 1 0 0 2 1 1 0 0 0 0-2z"/><path d="M11 6a.5.5 0 1 0 0-1 .5.5 0 0 0 0 1z"/><path fill-rule="evenodd" clip-rule="evenodd" d="M8.5 2A1.5 1.5 0 0 0 7 3.5v9A1.5 1.5 0 0 0 8.5 14h5a1.5 1.5 0 0 0 1.5-1.5v-9A1.5 1.5 0 0 0 13.5 2h-5zM8 3.5a.5.5 0 0 1 .5-.5h5a.5.5 0 0 1 .5.5v9a.5.5 0 0 1-.5.5h-5a.5.5 0 0 1-.5-.5v-9z"/></svg>
