<svg width="16" height="16" fill="currentColor" xmlns="http://www.w3.org/2000/svg"><path fill-rule="evenodd" clip-rule="evenodd" d="M8 5.409l-.832-1.248C5.742 2.02 2 2.998 2 5.92c0 .861.336 1.735.922 2.6.585.864 1.385 1.665 2.218 2.359A20.441 20.441 0 0 0 8 12.859a20.44 20.44 0 0 0 2.86-1.98c.833-.694 1.633-1.495 2.218-2.36.587-.864.922-1.738.922-2.6C14 3 10.258 2.022 8.832 4.162L8 5.409zm-.682-2.571C5.05.92 1 2.44 1 5.92 1 10.42 8 14 8 14s7-3.58 7-8.08c0-3.48-4.05-5-6.318-3.082A3.66 3.66 0 0 0 8 3.606c-.2-.3-.43-.555-.682-.768z"/></svg>
