<svg width="24" height="24" fill="currentColor" xmlns="http://www.w3.org/2000/svg"><path fill-rule="evenodd" clip-rule="evenodd" d="M12 8.068l-.83-1.235C8.878 3.423 3 5.04 3 9.553c0 1.328.521 2.645 1.388 3.914.866 1.268 2.04 2.431 3.249 3.43A29.63 29.63 0 0 0 12 19.863a29.635 29.635 0 0 0 4.363-2.968c1.208-.998 2.383-2.161 3.249-3.43C20.479 12.199 21 10.882 21 9.554c0-4.514-5.878-6.13-8.17-2.72L12 8.068zm-.659-2.593C8.178 2.329 2 4.459 2 9.553 2 15.928 12 21 12 21s10-5.072 10-11.447c0-5.094-6.178-7.224-9.341-4.078a5.28 5.28 0 0 0-.659.8 5.28 5.28 0 0 0-.659-.8z"/></svg>
