<svg width="24" height="24" fill="none" xmlns="http://www.w3.org/2000/svg"><path fill-rule="evenodd" clip-rule="evenodd" d="M17.736 3.808a10 10 0 0 1 .282 16.178l.602.799a11 11 0 0 0-.31-17.796l-.574.82zm-.438 5.375a6 6 0 0 0-1.856-2.098l.573-.82a7 7 0 0 1 .198 11.325l-.602-.798a6 6 0 0 0 1.687-7.609zM12 14a2 2 0 1 0 0-4 2 2 0 0 0 0 4zm0 1a3 3 0 1 0 0-6 3 3 0 0 0 0 6zm-5.298-.183a6 6 0 0 0 1.857 2.098l-.574.82A7 7 0 0 1 7.787 6.41l.602.798a6 6 0 0 0-1.687 7.609zm-.438 5.375a10 10 0 0 1-.282-16.178l-.602-.799a11 11 0 0 0 .31 17.796l.574-.82z" fill="currentColor"/></svg>
