<svg width="16" height="16" fill="currentColor" xmlns="http://www.w3.org/2000/svg"><path d="M15 4.5l-3-1.7v1.368c-1.051.195-1.878.548-2.562 1.012-1.043.707-1.712 1.644-2.326 2.503l-.019.026c-.631.884-1.209 1.685-2.092 2.283C4.13 10.582 2.922 11 1 11v1c2.078 0 3.493-.456 4.562-1.18 1.043-.707 1.712-1.644 2.326-2.503l.019-.026c.631-.884 1.208-1.685 2.092-2.283.52-.352 1.16-.643 2.001-.82V6.2l3-1.7zM12 13.2v-1.368c-1.051-.195-1.878-.549-2.562-1.012a6.426 6.426 0 0 1-.947-.789c.216-.279.407-.547.58-.79l.02-.027c.27.285.567.547.908.778.52.352 1.16.643 2.001.82V9.8l3 1.7-3 1.7zM5.562 5.18c.354.24.666.507.947.789-.216.279-.407.547-.58.79l-.02.027a5.517 5.517 0 0 0-.908-.778C4.13 5.418 2.922 5 1 5V4c2.078 0 3.493.456 4.562 1.18z"/></svg>
