<svg width="24" height="24" fill="none" xmlns="http://www.w3.org/2000/svg"><path fill-rule="evenodd" clip-rule="evenodd" d="M12 3.5C9.73 3.5 8 5.58 8 8s1.73 4.5 4 4.5 4-2.08 4-4.5-1.73-4.5-4-4.5zM9 8c0-1.998 1.404-3.5 3-3.5s3 1.502 3 3.5-1.404 3.5-3 3.5S9 9.998 9 8z" fill="currentColor"/><path fill-rule="evenodd" clip-rule="evenodd" d="M23 12c0 6.075-4.925 11-11 11S1 18.075 1 12 5.925 1 12 1s11 4.925 11 11zm-4.589 7.675A9.96 9.96 0 0 1 12 22a9.96 9.96 0 0 1-6.411-2.325c.202-1.45.753-2.69 1.692-3.585C8.295 15.122 9.817 14.5 12 14.5c2.183 0 3.705.622 4.719 1.59.939.896 1.49 2.134 1.692 3.585zm.87-.82c-.294-1.346-.895-2.556-1.872-3.489C16.17 14.182 14.38 13.5 12 13.5c-2.378 0-4.169.682-5.41 1.866-.976.933-1.577 2.143-1.87 3.49A9.965 9.965 0 0 1 2 12C2 6.477 6.477 2 12 2s10 4.477 10 10a9.965 9.965 0 0 1-2.72 6.855z" fill="currentColor"/></svg>
